<?xml version="1.0" encoding="UTF-8" standalone="no"?>
<!-- Created with Inkscape (http://www.inkscape.org/) -->

<svg
   width="620"
   height="300"
   viewBox="0 0 164.04166 79.375"
   version="1.1"
   id="svg225"
   inkscape:version="1.2.2 (732a01da63, 2022-12-09)"
   sodipodi:docname="splash_screen.svg"
   xmlns:inkscape="http://www.inkscape.org/namespaces/inkscape"
   xmlns:sodipodi="http://sodipodi.sourceforge.net/DTD/sodipodi-0.dtd"
   xmlns:xlink="http://www.w3.org/1999/xlink"
   xmlns="http://www.w3.org/2000/svg"
   xmlns:svg="http://www.w3.org/2000/svg">
  <sodipodi:namedview
     id="namedview227"
     pagecolor="#ffffff"
     bordercolor="#666666"
     borderopacity="1.0"
     inkscape:showpageshadow="true"
     inkscape:pageopacity="0.0"
     inkscape:pagecheckerboard="true"
     inkscape:deskcolor="#d1d1d1"
     inkscape:document-units="px"
     showgrid="false"
     inkscape:zoom="2"
     inkscape:cx="181.25"
     inkscape:cy="134.5"
     inkscape:window-width="2560"
     inkscape:window-height="1369"
     inkscape:window-x="1912"
     inkscape:window-y="481"
     inkscape:window-maximized="1"
     inkscape:current-layer="layer1" />
  <defs
     id="defs222">
    <linearGradient
       inkscape:collect="always"
       id="linearGradient1165">
      <stop
         style="stop-color:#2999b2;stop-opacity:1;"
         offset="0"
         id="stop1161" />
      <stop
         style="stop-color:#18a920;stop-opacity:1;"
         offset="1"
         id="stop1163" />
    </linearGradient>
    <linearGradient
       inkscape:collect="always"
       xlink:href="#linearGradient27469"
       id="linearGradient27471"
       x1="0.55397218"
       y1="0.85576117"
       x2="68.146744"
       y2="67.795341"
       gradientUnits="userSpaceOnUse" />
    <linearGradient
       inkscape:collect="always"
       id="linearGradient27469">
      <stop
         style="stop-color:#f5f2b6;stop-opacity:0.81052625;"
         offset="0.37272727"
         id="stop27465" />
      <stop
         style="stop-color:#e2f6c1;stop-opacity:0.80000001;"
         offset="0.73939395"
         id="stop27467" />
    </linearGradient>
    <filter
       style="color-interpolation-filters:sRGB"
       inkscape:label="Drop Shadow"
       id="filter28840"
       x="-0.049440933"
       y="-0.042667605"
       width="1.0988819"
       height="1.0853352">
      <feFlood
         flood-opacity="0.498039"
         flood-color="rgb(0,0,0)"
         result="flood"
         id="feFlood28830" />
      <feComposite
         in="flood"
         in2="SourceGraphic"
         operator="in"
         result="composite1"
         id="feComposite28832" />
      <feGaussianBlur
         in="composite1"
         stdDeviation="1"
         result="blur"
         id="feGaussianBlur28834" />
      <feOffset
         dx="-1.97065e-15"
         dy="0"
         result="offset"
         id="feOffset28836" />
      <feComposite
         in="SourceGraphic"
         in2="offset"
         operator="over"
         result="composite2"
         id="feComposite28838" />
    </filter>
    <inkscape:path-effect
       effect="simplify"
       id="path-effect21346"
       is_visible="false"
       lpeversion="1"
       steps="1"
       threshold="0.002"
       smooth_angles="40"
       helper_size="5"
       simplify_individual_paths="false"
       simplify_just_coalesce="false" />
    <inkscape:path-effect
       effect="interpolate_points"
       id="path-effect21348"
       is_visible="true"
       lpeversion="1"
       interpolator_type="CentripetalCatmullRom" />
    <inkscape:path-effect
       effect="fillet_chamfer"
       id="path-effect16172"
       is_visible="true"
       lpeversion="1"
       nodesatellites_param="F,0,0,1,0,1.8520833,0,1 @ F,0,0,1,0,1.8520833,0,1 @ F,0,0,1,0,1.8520833,0,1 @ F,0,0,1,0,1.8520833,0,1"
       unit="px"
       method="auto"
       mode="F"
       radius="7"
       chamfer_steps="1"
       flexible="false"
       use_knot_distance="true"
       apply_no_radius="true"
       apply_with_radius="true"
       only_selected="false"
       hide_knots="false" />
    <linearGradient
       inkscape:collect="always"
       xlink:href="#linearGradient1165"
       id="linearGradient3141"
       gradientUnits="userSpaceOnUse"
       gradientTransform="matrix(0.89917573,0,0,0.89917573,3.4215566,3.4140855)"
       x1="269.7074"
       y1="72.666512"
       x2="71.147621"
       y2="-32.024418" />
    <linearGradient
       inkscape:collect="always"
       xlink:href="#linearGradient21359"
       id="linearGradient21363"
       gradientUnits="userSpaceOnUse"
       x1="222.88853"
       y1="68.266647"
       x2="58.846855"
       y2="-11.108351" />
    <linearGradient
       inkscape:collect="always"
       id="linearGradient21359">
      <stop
         style="stop-color:#ffffff;stop-opacity:1;"
         offset="0"
         id="stop21355" />
      <stop
         style="stop-color:#e8e8ee;stop-opacity:1;"
         offset="0.8097983"
         id="stop21357" />
    </linearGradient>
    <linearGradient
       inkscape:collect="always"
       xlink:href="#linearGradient21359"
       id="linearGradient5517"
       gradientUnits="userSpaceOnUse"
       x1="151.59982"
       y1="72.191269"
       x2="-12.44185"
       y2="-7.183732" />
    <linearGradient
       inkscape:collect="always"
       xlink:href="#linearGradient21359"
       id="linearGradient5519"
       gradientUnits="userSpaceOnUse"
       x1="164.04167"
       y1="79.375"
       x2="-2.7085571e-06"
       y2="2.6722412e-07" />
  </defs>
  <rect
     style="fill:url(#linearGradient3141);fill-opacity:1;fill-rule:evenodd;stroke-width:0.237907;font-variation-settings:normal;opacity:1;vector-effect:none;stroke-linecap:butt;stroke-linejoin:miter;stroke-miterlimit:4;stroke-dasharray:none;stroke-dashoffset:0;stroke-opacity:1;-inkscape-stroke:none;stop-color:#000000;stop-opacity:1"
     id="rect3068"
     width="164.04167"
     height="79.375"
     x="65.811737"
     y="-11.108351"
     ry="0"
     transform="translate(-65.81174,11.108351)"
     inkscape:label="背景" />
  <g
     inkscape:label="アイコン"
     inkscape:groupmode="layer"
     id="layer1"
     transform="translate(-58.846858,11.108351)">
    <path
       id="path298"
       style="display:inline;fill:url(#linearGradient5517);fill-opacity:1;fill-rule:evenodd;stroke-width:0.28516099;font-variation-settings:normal;opacity:1;vector-effect:none;stroke-linecap:butt;stroke-linejoin:miter;stroke-miterlimit:4;stroke-dasharray:none;stroke-dashoffset:0;stroke-opacity:1;-inkscape-stroke:none;stop-color:#000000;stop-opacity:1"
       inkscape:label="背景"
       d="M 33.935615,2.7505448 A 31.111296,31.111296 0 0 0 2.8243359,33.861824 31.111296,31.111296 0 0 0 33.935615,64.973102 31.111296,31.111296 0 0 0 65.046893,33.861824 31.111296,31.111296 0 0 0 33.935615,2.7505448 Z m 0,5.1552408 A 25.955814,25.955814 0 0 1 59.891652,33.861824 25.955814,25.955814 0 0 1 33.935615,59.817345 25.955814,25.955814 0 0 1 7.9800935,33.861824 25.955814,25.955814 0 0 1 33.935615,7.9057856 Z"
       transform="translate(71.288705,-3.9246187)" />
    <path
       id="rect1841"
       style="fill:url(#linearGradient21363);fill-opacity:1;fill-rule:evenodd;stroke-width:0.28516099;font-variation-settings:normal;opacity:1;vector-effect:none;stroke-linecap:butt;stroke-linejoin:miter;stroke-miterlimit:4;stroke-dasharray:none;stroke-dashoffset:0;stroke-opacity:1;-inkscape-stroke:none;stop-color:#000000;stop-opacity:1"
       d="m 100.40032,7.4874128 c -1.035475,-2.88e-4 -1.846649,0.8762816 -1.749759,1.8908406 l 2.586919,24.2812046 c 0.11406,1.070617 1.01656,1.890841 2.11047,1.890841 h 2.73937 c 1.09231,0 1.98085,-0.823413 2.10013,-1.891874 l 2.71042,-24.2791381 c 0.0918,-1.016763 -0.72232,-1.8920971 -1.75958,-1.8918741 z m 4.37338,37.0085932 c -2.34589,6.7e-5 -4.24763,1.871496 -4.2478,4.180106 -1.2e-4,2.308811 1.9017,4.180557 4.2478,4.180624 2.3463,2.14e-4 4.24844,-1.871615 4.24832,-4.180624 -1.7e-4,-2.308806 -1.90222,-4.18032 -4.24832,-4.180106 z"
       inkscape:label="ビックリマーク" />
    <path
       id="path17664-5"
       style="display:inline;fill:url(#linearGradient27471);fill-opacity:1;stroke:none;stroke-width:0.264583px;stroke-linecap:butt;stroke-linejoin:miter;stroke-opacity:1;filter:url(#filter28840)"
       inkscape:label="統合日本"
       d="m 46.83125,5.6720052 c 0,0 -1.107939,0.181901 -1.174089,0.181901 l 0.628386,3.7041667 -0.330729,2.5466141 -1.322917,1.223698 0.611849,1.438672 -1.207161,0.711068 -2.265495,-0.826823 0.711067,1.951302 -0.975651,0.826823 -1.223698,0.314193 -0.04961,1.504817 1.141016,1.35599 -0.231511,1.719792 1.190625,0.132291 0.545703,-1.322916 0.413412,0.23151 h 1.289844 l -2.66237,-2.083594 0.562239,-1.372526 0.661459,0.115756 0.826823,0.992187 2.133203,-1.322917 4.696354,2.976563 0.347266,-2.083594 2.513541,-2.298568 1.670183,0.512631 0.04961,-0.744141 0.694531,0.463021 1.885156,-1.5875 -0.843359,0.165364 -0.396875,-0.711067 0.01654,-0.909505 -0.496094,-0.463021 0.429948,-1.835547 -1.488282,1.273307 -1.074869,-0.115755 -4.183724,-2.5300782 z m -3.092318,16.6687498 -0.628385,1.372526 1.289844,-0.396875 -0.01654,1.240235 -0.413411,0.429948 -0.347266,-0.595313 -0.51263,0.479557 -0.578776,-1.554427 -0.677995,0.04961 0.01654,1.785937 -1.53789,0.959115 0.777213,0.79375 -0.01654,0.578776 -0.975651,0.975651 0.859896,0.51263 -0.148828,2.678906 -1.885157,4.299479 -1.438672,0.611849 -1.074869,2.083594 -4.001823,2.282031 -0.694531,-0.363802 0.297656,-0.760677 -0.711068,-0.248047 1.223698,-1.488281 -1.835547,0.677995 0.132292,2.282031 -1.901693,2.067057 -0.132292,1.670183 -0.942578,0.760677 -0.578776,-0.198438 -0.876432,0.148828 0.330729,-0.628385 -0.413411,-0.363802 -0.826823,0.843359 -1.240235,-0.413411 -2.976562,0.909505 -1.207162,-0.628385 -0.859895,0.611849 -0.595313,0.04961 -0.09922,0.611849 -3.356901,3.059245 -1.504817,-0.01654 0.04961,1.322917 0.628385,0.545703 h 1.008724 l 0.711068,-0.56224 1.124479,0.909506 0.760677,-1.719792 0.859896,0.51263 1.35599,-1.008724 0.628385,0.314193 0.744141,-0.694531 0.843359,0.413411 0.181901,-0.694531 1.604037,-0.661458 1.769401,0.46302 0.611849,-0.214974 0.595312,0.09922 0.08268,0.744141 -1.091406,0.628385 0.347266,0.611849 -0.578776,1.124479 2.298567,1.719792 1.322917,-2.38125 0.788582,-1.09399 1.226799,0.02325 -1.072803,-1.426269 0.711068,-1.025261 0.09922,0.959115 0.376204,0.624768 0.334863,-0.872815 0.644922,0.115755 -0.506946,0.677995 0.754993,0.06615 c 0,0 1.190621,-0.248043 1.256771,-0.264583 0.06614,-0.01654 1.207161,0.198437 1.207161,0.198437 l 1.736329,-1.918229 0.545703,0.148828 -0.429948,0.595313 0.347265,0.992187 0.777214,-0.843359 -0.01654,-1.273308 0.876433,-0.363802 0.578776,0.314193 0.198437,-1.02526 0.727604,-0.529167 0.347266,0.396875 -0.859896,0.79375 -0.04961,0.909505 0.446484,0.744141 1.438672,-1.207162 0.181901,-1.174088 1.207162,-0.727604 -0.876433,-1.967839 1.372526,-2.530078 0.03307,-4.745964 0.876433,-0.876432 0.711067,0.496094 -0.413411,-1.471745 0.892969,-0.644922 -0.165365,-0.694531 1.091406,-0.859896 0.08268,-1.620573 -0.396875,-1.918229 -1.372526,-2.14974 0.03307,-2.745052 z m -7.524088,12.84056 c -0.07441,0.07441 -0.760677,0.686263 -0.760677,0.686263 l 0.01654,1.314649 0.851628,-0.727605 z M 25.689388,49.063672 c -0.01654,0.03307 -0.959115,0.967383 -0.959115,0.967383 l 0.223243,0.529166 0.967382,-0.677994 z m -2.984831,0.429948 -1.231966,0.669726 0.0083,1.223698 -1.488281,0.07441 -0.537435,-0.810286 -0.826823,1.761133 -1.72806,0.983919 1.041797,0.14056 0.09922,1.438672 0.545703,0.611849 1.223698,-0.06615 -0.239779,-0.884701 1.876888,-1.843815 1.016993,-0.04961 0.727604,1.066601 0.248047,-0.421679 0.115755,-0.694532 1.81901,-1.124479 -0.661458,-0.272851 -0.181901,-0.992188 z m -10.4097,1.885156 -0.694531,0.677995 -0.463021,0.826823 -0.84336,0.107487 0.107487,0.711067 -0.983919,0.05788 1.107943,1.141016 0.07441,0.322461 -0.338998,0.06614 -0.2728512,-0.338997 -0.3555338,-0.56224 -0.1819011,0.628386 0.322461,0.173633 0.3472651,0.198437 -0.305924,0.405143 0.09095,0.677995 0.926042,-0.777213 0.479557,0.562239 0.454753,-0.686263 -0.636654,-0.603581 0.347266,-0.8847 c 0,0 0.950851,1.314651 0.975651,1.347721 0.02481,0.03307 -0.562239,0.727604 -0.562239,0.727604 l 0.711067,0.09095 -1.455208,1.661914 0.297656,1.016992 0.06615,1.141016 -0.471289,0.396875 1.372526,0.917773 -0.148828,-0.859896 0.165364,-0.595312 -0.165364,-0.463021 0.719336,-0.07441 0.07441,1.265039 -0.289388,1.265039 2.232422,-1.546159 0.868164,-4.142382 1.174088,-1.256771 -1.041797,-0.644922 0.553972,-0.537435 -1.066602,-0.08268 0.396875,-0.545703 -0.06615,-0.7028 -1.736328,0.04134 -0.338997,-0.429948 0.07441,-0.669726 z"
       inkscape:original-d="m 46.83125,5.6720052 c 0,0 -1.107939,0.181901 -1.174089,0.181901 l 0.628386,3.7041667 -0.330729,2.5466141 -1.322917,1.223698 0.611849,1.438672 -1.207161,0.711068 -2.265495,-0.826823 0.711067,1.951302 -0.975651,0.826823 -1.223698,0.314193 -0.04961,1.504817 1.141016,1.35599 -0.231511,1.719792 1.190625,0.132291 0.545703,-1.322916 0.413412,0.23151 h 1.289844 l -2.66237,-2.083594 0.562239,-1.372526 0.661459,0.115756 0.826823,0.992187 2.133203,-1.322917 4.696354,2.976563 0.347266,-2.083594 2.513541,-2.298568 1.670183,0.512631 0.04961,-0.744141 0.694531,0.463021 1.885156,-1.5875 -0.843359,0.165364 -0.396875,-0.711067 0.01654,-0.909505 -0.496094,-0.463021 0.429948,-1.835547 -1.488282,1.273307 -1.074869,-0.115755 -4.183724,-2.5300782 z m -3.092318,16.6687498 -0.628385,1.372526 1.289844,-0.396875 -0.01654,1.240235 -0.413411,0.429948 -0.347266,-0.595313 -0.51263,0.479557 -0.578776,-1.554427 -0.677995,0.04961 0.01654,1.785937 -1.53789,0.959115 0.777213,0.79375 -0.01654,0.578776 -0.975651,0.975651 0.859896,0.51263 -0.148828,2.678906 -1.885157,4.299479 -1.438672,0.611849 -1.074869,2.083594 -4.001823,2.282031 -0.694531,-0.363802 0.297656,-0.760677 -0.711068,-0.248047 1.223698,-1.488281 -1.835547,0.677995 0.132292,2.282031 -1.901693,2.067057 -0.132292,1.670183 -0.942578,0.760677 -0.578776,-0.198438 -0.876432,0.148828 0.330729,-0.628385 -0.413411,-0.363802 -0.826823,0.843359 -1.240235,-0.413411 -2.976562,0.909505 -1.207162,-0.628385 -0.859895,0.611849 -0.595313,0.04961 -0.09922,0.611849 -3.356901,3.059245 -1.504817,-0.01654 0.04961,1.322917 0.628385,0.545703 h 1.008724 l 0.711068,-0.56224 1.124479,0.909506 0.760677,-1.719792 0.859896,0.51263 1.35599,-1.008724 0.628385,0.314193 0.744141,-0.694531 0.843359,0.413411 0.181901,-0.694531 1.604037,-0.661458 1.769401,0.46302 0.611849,-0.214974 0.595312,0.09922 0.08268,0.744141 -1.091406,0.628385 0.347266,0.611849 -0.578776,1.124479 2.298567,1.719792 1.322917,-2.38125 0.788582,-1.09399 1.226799,0.02325 -1.072803,-1.426269 0.711068,-1.025261 0.09922,0.959115 0.376204,0.624768 0.334863,-0.872815 0.644922,0.115755 -0.506946,0.677995 0.754993,0.06615 c 0,0 1.190621,-0.248043 1.256771,-0.264583 0.06614,-0.01654 1.207161,0.198437 1.207161,0.198437 l 1.736329,-1.918229 0.545703,0.148828 -0.429948,0.595313 0.347265,0.992187 0.777214,-0.843359 -0.01654,-1.273308 0.876433,-0.363802 0.578776,0.314193 0.198437,-1.02526 0.727604,-0.529167 0.347266,0.396875 -0.859896,0.79375 -0.04961,0.909505 0.446484,0.744141 1.438672,-1.207162 0.181901,-1.174088 1.207162,-0.727604 -0.876433,-1.967839 1.372526,-2.530078 0.03307,-4.745964 0.876433,-0.876432 0.711067,0.496094 -0.413411,-1.471745 0.892969,-0.644922 -0.165365,-0.694531 1.091406,-0.859896 0.08268,-1.620573 -0.396875,-1.918229 -1.372526,-2.14974 0.03307,-2.745052 z m -7.524088,12.84056 c -0.07441,0.07441 -0.760677,0.686263 -0.760677,0.686263 l 0.01654,1.314649 0.851628,-0.727605 z M 25.689388,49.063672 c -0.01654,0.03307 -0.959115,0.967383 -0.959115,0.967383 l 0.223243,0.529166 0.967382,-0.677994 z m -2.984831,0.429948 -1.231966,0.669726 0.0083,1.223698 -1.488281,0.07441 -0.537435,-0.810286 -0.826823,1.761133 -1.72806,0.983919 1.041797,0.14056 0.09922,1.438672 0.545703,0.611849 1.223698,-0.06615 -0.239779,-0.884701 1.876888,-1.843815 1.016993,-0.04961 0.727604,1.066601 0.248047,-0.421679 0.115755,-0.694532 1.81901,-1.124479 -0.661458,-0.272851 -0.181901,-0.992188 z m -10.4097,1.885156 -0.694531,0.677995 -0.463021,0.826823 -0.84336,0.107487 0.107487,0.711067 -0.983919,0.05788 1.107943,1.141016 0.07441,0.322461 -0.338998,0.06614 -0.2728512,-0.338997 -0.3555338,-0.56224 -0.1819011,0.628386 0.322461,0.173633 0.3472651,0.198437 -0.305924,0.405143 0.09095,0.677995 0.926042,-0.777213 0.479557,0.562239 0.454753,-0.686263 -0.636654,-0.603581 0.347266,-0.8847 c 0,0 0.950851,1.314651 0.975651,1.347721 0.02481,0.03307 -0.562239,0.727604 -0.562239,0.727604 l 0.711067,0.09095 -1.455208,1.661914 0.297656,1.016992 0.06615,1.141016 -0.471289,0.396875 1.372526,0.917773 -0.148828,-0.859896 0.165364,-0.595312 -0.165364,-0.463021 0.719336,-0.07441 0.07441,1.265039 -0.289388,1.265039 2.232422,-1.546159 0.868164,-4.142382 1.174088,-1.256771 -1.041797,-0.644922 0.553972,-0.537435 -1.066602,-0.08268 0.396875,-0.545703 -0.06615,-0.7028 -1.736328,0.04134 -0.338997,-0.429948 0.07441,-0.669726 z"
       transform="translate(71.288705,-3.9246187)" />
  </g>
  <g
     inkscape:groupmode="layer"
     id="layer2"
     inkscape:label="文字">
    <text
       xml:space="preserve"
       style="font-style:normal;font-weight:normal;font-size:14.1111px;line-height:0.95;font-family:sans-serif;fill:url(#linearGradient5519);fill-opacity:1;stroke:none;stroke-width:0.28516099;font-variation-settings:normal;opacity:1;vector-effect:none;stroke-linecap:butt;stroke-linejoin:miter;stroke-miterlimit:4;stroke-dasharray:none;stroke-dashoffset:0;stroke-opacity:1;-inkscape-stroke:none;stop-color:#000000;stop-opacity:1"
       x="88.971603"
       y="30.498779"
       id="text3926"><tspan
         sodipodi:role="line"
         id="tspan3924"
         style="font-style:normal;font-variant:normal;font-weight:300;font-stretch:normal;font-size:14.1111px;font-family:'Noto Sans JP';-inkscape-font-specification:'Noto Sans JP Light';fill:url(#linearGradient5519);fill-opacity:1;stroke-width:0.28516099;font-variation-settings:normal;vector-effect:none;stroke-linecap:butt;stroke-linejoin:miter;stroke-miterlimit:4;stroke-dasharray:none;stroke-dashoffset:0;stroke-opacity:1;-inkscape-stroke:none;stop-color:#000000;stop-opacity:1"
         x="88.971603"
         y="30.498779"><tspan
   style="font-style:normal;font-variant:normal;font-weight:normal;font-stretch:normal;font-family:'Noto Sans JP';-inkscape-font-specification:'Noto Sans JP';font-variation-settings:normal;vector-effect:none;fill:url(#linearGradient5519);fill-opacity:1;stroke-width:0.28516099;stroke-linecap:butt;stroke-linejoin:miter;stroke-miterlimit:4;stroke-dasharray:none;stroke-dashoffset:0;stroke-opacity:1;-inkscape-stroke:none;stop-color:#000000;stop-opacity:1"
   id="tspan3988">K</tspan>yoshin</tspan><tspan
         sodipodi:role="line"
         style="font-style:normal;font-variant:normal;font-weight:300;font-stretch:normal;font-size:14.1111px;font-family:'Noto Sans JP';-inkscape-font-specification:'Noto Sans JP Light';fill:url(#linearGradient5519);fill-opacity:1;stroke-width:0.28516099;font-variation-settings:normal;vector-effect:none;stroke-linecap:butt;stroke-linejoin:miter;stroke-miterlimit:4;stroke-dasharray:none;stroke-dashoffset:0;stroke-opacity:1;-inkscape-stroke:none;stop-color:#000000;stop-opacity:1"
         x="88.971603"
         y="45.211994"
         id="tspan3928"><tspan
   style="font-style:normal;font-variant:normal;font-weight:normal;font-stretch:normal;font-family:'Noto Sans JP';-inkscape-font-specification:'Noto Sans JP';font-variation-settings:normal;vector-effect:none;fill:url(#linearGradient5519);fill-opacity:1;stroke-width:0.28516099;stroke-linecap:butt;stroke-linejoin:miter;stroke-miterlimit:4;stroke-dasharray:none;stroke-dashoffset:0;stroke-opacity:1;-inkscape-stroke:none;stop-color:#000000;stop-opacity:1"
   id="tspan3994">E</tspan>ew</tspan><tspan
         sodipodi:role="line"
         style="font-style:normal;font-variant:normal;font-weight:300;font-stretch:normal;font-size:14.1111px;font-family:'Noto Sans JP';-inkscape-font-specification:'Noto Sans JP Light';fill:url(#linearGradient5519);fill-opacity:1;stroke-width:0.28516099;font-variation-settings:normal;vector-effect:none;stroke-linecap:butt;stroke-linejoin:miter;stroke-miterlimit:4;stroke-dasharray:none;stroke-dashoffset:0;stroke-opacity:1;-inkscape-stroke:none;stop-color:#000000;stop-opacity:1"
         x="88.971603"
         y="59.925213"
         id="tspan3930"><tspan
   style="font-style:normal;font-variant:normal;font-weight:normal;font-stretch:normal;font-family:'Noto Sans JP';-inkscape-font-specification:'Noto Sans JP';font-variation-settings:normal;vector-effect:none;fill:url(#linearGradient5519);fill-opacity:1;stroke-width:0.28516099;stroke-linecap:butt;stroke-linejoin:miter;stroke-miterlimit:4;stroke-dasharray:none;stroke-dashoffset:0;stroke-opacity:1;-inkscape-stroke:none;stop-color:#000000;stop-opacity:1"
   id="tspan3996">V</tspan>iewer</tspan></text>
  </g>
</svg>
